
<svg width="12px" height="22px" viewBox="0 0 12 22" version="1.1" xmlns="http://www.w3.org/2000/svg" xmlns:xlink="http://www.w3.org/1999/xlink">
    <g id="Symbols" stroke="none" stroke-width="1" fill="none" fill-rule="evenodd">
        <g id="footer/desktop/expanded" transform="translate(-1336.000000, -314.000000)" fill="#FFFFFF">
            <g id="social_media_icons" transform="translate(1284.495911, 314.409313)">
                <path d="M59.2542515,21.5 L59.2542515,11.9233129 L62.502283,11.9233129 L62.978661,8.18711656 L59.2542515,8.18711656 L59.2542515,5.80368098 C59.2542515,5.53169598 59.2795137,5.28476594 59.3300389,5.06288344 C59.3805641,4.84100094 59.4707863,4.65133003 59.6007082,4.49386503 C59.7306301,4.33640003 59.9182923,4.21114566 60.1637003,4.11809816 C60.4091084,4.02505066 60.7266905,3.97852761 61.1164562,3.97852761 L63.1085822,3.97852761 L63.1085822,0.650306748 C62.935353,0.621676748 62.581682,0.589468482 62.0475586,0.553680982 C61.5134352,0.517893482 60.8999243,0.5 60.2070074,0.5 C59.485219,0.5 58.8284015,0.60736089 58.236535,0.82208589 C57.6446685,1.03681089 57.1358153,1.35173617 56.7099602,1.76687117 C56.284105,2.18200617 55.9520873,2.69733844 55.7138972,3.31288344 C55.475707,3.92842844 55.3566137,4.63701031 55.3566137,5.43865031 L55.3566137,8.18711656 L52.1085822,8.18711656 L52.1085822,11.9233129 L55.3566137,11.9233129 L55.3566137,21.5 L59.2542515,21.5 Z" id="facebook"></path>
            </g>
        </g>
    </g>
</svg>