
<svg width="21px" height="21px" viewBox="0 0 21 21" version="1.1" xmlns="http://www.w3.org/2000/svg" xmlns:xlink="http://www.w3.org/1999/xlink">
    <defs>
        <polygon id="path-1" points="0 0 20.9576763 0 20.9576763 20.9232481 0 20.9232481"></polygon>
    </defs>
    <g id="Symbols" stroke="none" stroke-width="1" fill="none" fill-rule="evenodd">
        <g id="footer/desktop/expanded" transform="translate(-1332.000000, -315.000000)">
            <g id="social_media_icons" transform="translate(1284.495911, 314.409313)">
                <g id="Group-8" transform="translate(47.504089, 0.590687)">
                    <g id="Group-3">
                        <mask id="mask-2" fill="white">
                            <use xlink:href="#path-1"></use>
                        </mask>
                        <g id="Clip-2"></g>
                        <path d="M19.0782878,10.5080899 C19.0335467,8.94048861 19.0242625,7.35122278 18.9342499,5.76660886 C18.8088246,3.55837468 17.4029299,2.10764684 15.1952773,2.05576709 C12.0573467,1.98200127 8.915172,1.97921013 5.77732989,2.05319747 C3.513972,2.10658354 2.06130253,3.55806456 2.00727726,5.81667215 C1.93247305,8.94651392 1.92933411,12.080919 2.00497832,15.2107165 C2.06059516,17.5108367 3.50070884,18.9571785 5.78382884,19.0116722 C8.90708147,19.0862797 12.0347994,19.085438 15.1580962,19.0113177 C17.4203931,18.9576215 18.8107699,17.5169949 18.9377867,15.2474443 C19.0256773,13.6772734 19.0338562,12.1025835 19.0782878,10.5080899 L19.0782878,10.5080899 Z M5.73245621,20.9556785 C2.38408358,20.7396532 0.207820421,18.6035013 0.0816877895,15.2572354 C-0.0192006316,12.578938 0.00347936842,9.89545696 1.84291554e-05,7.21427975 C-0.00094168421,6.48915949 0.0547635789,5.75633038 0.167235158,5.04007089 C0.494967789,2.95283038 1.52719516,1.34269747 3.56667095,0.605570886 C4.43841411,0.290482278 5.40118674,0.119336709 6.32912147,0.0900962025 C8.81419516,0.0117670886 11.3028057,0.0324171439 13.7899131,0.0428240506 C14.5138162,0.0458367089 15.2421846,0.110165823 15.9600752,0.208475949 C18.4471383,0.548994937 20.1710394,2.16701392 20.6902478,4.62419114 C21.0306688,6.23516582 20.9491446,7.86067215 20.9491446,9.49756456 L20.9491446,14.9085646 C20.9491446,17.4330392 19.2742288,20.1192671 16.6849067,20.6870203 C15.629292,20.9184633 14.4119994,20.9556785 13.3320246,20.9556785 L9.56586253,20.9556785 L5.73245621,20.9556785 Z" id="Fill-1" fill="#FEFEFE" mask="url(#mask-2)"></path>
                    </g>
                    <path d="M10.4895956,6.95932607 C8.54176545,6.95941604 6.95172573,8.56735248 6.95625925,10.5324032 C6.96072222,12.4528315 8.5716338,14.0432699 10.5098827,14.0407539 C12.4431385,14.0382319 14.0375415,12.4448247 14.0407402,10.5120712 C14.043974,8.55444257 12.449481,6.95923611 10.4895956,6.95932607 M10.4970627,15.9999995 C7.4691139,15.9986494 4.99332471,13.5148631 5.00001352,10.4852618 C5.00672948,7.459484 7.49565354,4.98869753 10.5254916,5.00003889 C13.5322087,5.0113686 15.9961675,7.48300973 15.9999955,10.4916043 C16.0038595,13.520036 13.5249665,16.0013484 10.4970627,15.9999995" id="Fill-4" fill="#FEFEFE"></path>
                    <path d="M16.2676234,6.5 C15.5366422,6.5035964 15.0001742,5.98161704 15,5.26667285 C14.9998694,4.55618135 15.5575436,3.99487719 16.2584791,4.00003527 C16.9686896,4.00528151 17.506943,4.55966415 17.4999323,5.27870835 C17.4930523,5.98695146 16.9789226,6.49645445 16.2676234,6.5" id="Fill-6" fill="#FEFEFE"></path>
                </g>
            </g>
        </g>
    </g>
</svg>