
<svg width="23px" height="19px" viewBox="0 0 23 19" version="1.1" xmlns="http://www.w3.org/2000/svg" xmlns:xlink="http://www.w3.org/1999/xlink">
    <g id="Symbols" stroke="none" stroke-width="1" fill="none" fill-rule="evenodd">
        <g id="footer/desktop/expanded" transform="translate(-1284.000000, -317.000000)" fill="#FFFFFF">
            <g id="social_media_icons" transform="translate(1284.495911, 314.409313)">
                <path d="M19.85511,7.98076923 C19.9060362,9.04487712 19.8169167,10.1185843 19.5877489,11.2019231 C19.3585811,12.2852618 19.0021032,13.3269181 18.5183044,14.3269231 C18.0345057,15.3269281 17.4265836,16.2628162 16.6945197,17.1346154 C15.9624559,18.0064146 15.112638,18.7660224 14.1450406,19.4134615 C13.1774431,20.0609007 12.0984609,20.570511 10.9080614,20.9423077 C9.71766192,21.3141044 8.42224663,21.5 7.02177666,21.5 C5.74862215,21.5 4.52959499,21.3237197 3.36465861,20.9711538 C2.19972223,20.618588 1.11437429,20.1153879 0.10858222,19.4615385 C1.30534746,19.6025648 2.47981488,19.5128221 3.63201972,19.1923077 C4.78422455,18.8717933 5.83774411,18.3333371 6.79261,17.5769231 C6.29607974,17.5641025 5.82501963,17.4775649 5.37941555,17.3173077 C4.93381147,17.1570505 4.52640814,16.9391039 4.15719333,16.6634615 C3.78797852,16.3878191 3.46651183,16.0576942 3.19278361,15.6730769 C2.91905539,15.2884596 2.71217088,14.8717971 2.57212389,14.4230769 C3.27235887,14.5512827 3.95348632,14.5256419 4.61552666,14.3461538 C4.06807022,14.2307687 3.57154741,14.0320527 3.12594333,13.75 C2.68033925,13.4679473 2.29521579,13.125002 1.97056139,12.7211538 C1.64590699,12.3173057 1.39764558,11.8653871 1.22576972,11.3653846 C1.05389386,10.8653821 0.974322897,10.3525667 0.987054442,9.82692308 C1.29261153,10.0064112 1.61726106,10.1442303 1.96101278,10.2403846 C2.30476449,10.3365389 2.66124241,10.3910256 3.03045722,10.4038462 C2.53392696,10.0576906 2.12652363,9.64423317 1.808235,9.16346154 C1.48994637,8.6826899 1.26714767,8.16666942 1.13983222,7.61538462 C1.01251677,7.06409981 0.990236899,6.50641308 1.07299194,5.94230769 C1.15574699,5.37820231 1.34353446,4.83974615 1.63636,4.32692308 C2.75673597,5.71154538 4.11580803,6.82371375 5.71361694,7.66346154 C7.31142586,8.50320933 9.05243854,8.97435846 10.9367072,9.07692308 C10.7711971,8.37179135 10.7711971,7.68269567 10.9367072,7.00961538 C11.1022173,6.3365351 11.3918556,5.74038721 11.8056308,5.22115385 C12.219406,4.70192048 12.7318431,4.28525798 13.3429572,3.97115385 C13.9540714,3.65704971 14.6224675,3.5 15.3481656,3.5 C15.9974744,3.5 16.6053965,3.62820385 17.1719503,3.88461538 C17.738504,4.14102692 18.2254783,4.48717731 18.6328878,4.92307692 C19.1548811,4.82051231 19.6514039,4.67628298 20.1224711,4.49038462 C20.5935383,4.30448625 21.051867,4.08333462 21.4974711,3.82692308 C21.331961,4.36538731 21.0773339,4.84935683 20.7335822,5.27884615 C20.3898305,5.70833548 19.9824272,6.06410115 19.51136,6.34615385 C19.9696956,6.28205096 20.415293,6.19230827 20.8481656,6.07692308 C21.2810381,5.96153788 21.7011728,5.81410346 22.1085822,5.63461538 C21.8030251,6.08333558 21.4624614,6.50640827 21.0868808,6.90384615 C20.7113002,7.30128404 20.3007141,7.66025481 19.85511,7.98076923 Z" id="twitter"></path>
            </g>
        </g>
    </g>
</svg>