
<svg width="23px" height="22px" viewBox="0 0 23 22" version="1.1" xmlns="http://www.w3.org/2000/svg" xmlns:xlink="http://www.w3.org/1999/xlink">
    <g id="Symbols" stroke="none" stroke-width="1" fill="none" fill-rule="evenodd">
        <g id="footer/desktop/expanded" transform="translate(-1377.000000, -314.000000)" fill="#FFFFFF">
            <g id="social_media_icons" transform="translate(1284.495911, 314.409313)">
                <path d="M98.1085822,3 C98.1085822,2.65277604 98.0420563,2.3298626 97.9090024,2.03125 C97.7759485,1.7326374 97.5973789,1.46875115 97.3732881,1.23958333 C97.1491973,1.01041552 96.8865949,0.829861771 96.585473,0.697916667 C96.284351,0.565971563 95.958724,0.5 95.6085822,0.5 C95.2584404,0.5 94.9328134,0.565971563 94.6316915,0.697916667 C94.3305695,0.829861771 94.0679671,1.01041552 93.8438763,1.23958333 C93.6197856,1.46875115 93.4412159,1.7326374 93.3081621,2.03125 C93.1751082,2.3298626 93.1085822,2.65277604 93.1085822,3 C93.1085822,3.34722396 93.1751082,3.6701374 93.3081621,3.96875 C93.4412159,4.2673626 93.6197856,4.53124885 93.8438763,4.76041667 C94.0679671,4.98958448 94.3305695,5.17013823 94.6316915,5.30208333 C94.9328134,5.43402844 95.2584404,5.5 95.6085822,5.5 C95.958724,5.5 96.284351,5.43402844 96.585473,5.30208333 C96.8865949,5.17013823 97.1491973,4.98958448 97.3732881,4.76041667 C97.5973789,4.53124885 97.7759485,4.2673626 97.9090024,3.96875 C98.0420563,3.6701374 98.1085822,3.34722396 98.1085822,3 Z M98.1085822,6.5 L93.1085822,6.5 L93.1085822,21.5 L98.1085822,21.5 L98.1085822,6.5 Z M104.76308,6.95082816 L100.108582,6.95082816 L100.108582,21.5 L104.76308,21.5 L104.76308,13.8654736 C104.76308,13.1582187 104.903235,12.5614813 105.18355,12.0752435 C105.463864,11.5890057 105.812622,11.2164395 106.229834,10.9575337 C106.647046,10.6986279 107.103365,10.5628622 107.598804,10.5502326 C108.094243,10.5376031 108.550562,10.64811 108.967774,10.8817567 C109.384986,11.1154035 109.733744,11.4784977 110.014058,11.9710502 C110.294372,12.4636028 110.434527,13.0950709 110.434527,13.8654736 L110.434527,21.5 L115.108582,21.5 L115.108582,12.2931022 C115.108582,11.0932947 114.899979,10.095575 114.482767,9.29991319 C114.065555,8.50425138 113.527751,7.88225524 112.869338,7.43390613 C112.210926,6.98555701 111.480816,6.70139634 110.678986,6.58141559 C109.877157,6.46143484 109.091637,6.4740642 108.322402,6.61930406 C107.553168,6.76454391 106.849133,7.03607522 106.210277,7.43390613 C105.571421,7.83173703 105.089027,8.32112486 104.76308,8.90208428 L104.76308,6.95082816 Z" id=""></path>
            </g>
        </g>
    </g>
</svg>